Coordinates
version=1
nRows=15
nColumns=42
inDegrees=yes

Units are S.I. units (second, meters, Newtons, ...)
If the header above contains a line with 'inDegrees', this indicates whether rotational values are in degrees (yes) or radians (no).

endheader
time	pelvis_tilt	pelvis_list	pelvis_rotation	pelvis_tx	pelvis_ty	pelvis_tz	hip_flexion_r	hip_adduction_r	hip_rotation_r	knee_angle_r	knee_adduction_r	knee_angle_r_beta	ankle_angle_r	subtalar_angle_r	mtp_angle_r	hip_flexion_l	hip_adduction_l	hip_rotation_l	knee_angle_l	knee_adduction_l	knee_angle_l_beta	ankle_angle_l	subtalar_angle_l	mtp_angle_l	lumbar_extension	lumbar_bending	lumbar_rotation	arm_flex_r	arm_add_r	arm_rot_r	elbow_flex_r	pro_sup_r	wrist_flex_r	wrist_dev_r	arm_flex_l	arm_add_l	arm_rot_l	elbow_flex_l	pro_sup_l	wrist_flex_l	wrist_dev_l
      1.16000000	     11.65018854	      0.45198282	     -4.64432907	     -0.25266623	      0.98654373	      0.26749214	      8.28218960	     -3.90929734	    -11.82585743	     45.78656274	     -5.29503400	      0.79912627	     18.02487741	      0.93731840	     -7.55752533	    -16.28218620	      5.68167127	    -13.90162846	      3.56342996	     -0.65176637	      0.06219359	     16.39748100	     25.41770300	     -7.55752533	    -25.87620949	      1.46105781	     -4.42934338	     -9.11644884	    -10.25605463	      6.45258789	     30.85885635	     90.00000001	      0.00000000	      0.00000000	      2.36424794	    -13.83948622	     -4.43213944	     43.01669435	     90.00000001	      0.00000000	      0.00000000
      1.17000000	     11.42136257	      0.38191777	     -4.47553837	     -0.23929890	      0.98506633	      0.26749005	      9.42617544	     -3.61193362	    -11.60227774	     42.69810470	     -4.54875467	      0.74522251	     18.02265835	      1.14849088	     -7.55595819	    -17.18892964	      5.66666848	    -13.63839220	      3.01677081	     -0.65564312	      0.05265258	     17.10328629	     25.86373746	     -7.55595819	    -25.65629572	      1.67091874	     -4.60140902	     -9.50199404	     -9.96742959	      6.26895482	     30.60057850	     90.00000001	      0.00000000	      0.00000000	      2.97574187	    -14.09891987	     -4.54884235	     43.92261754	     90.00000001	      0.00000000	      0.00000000
      1.18000000	     11.49392206	      0.27505529	     -4.31559464	     -0.22562786	      0.98366279	      0.26781089	     10.01925648	     -3.19735044	    -11.72713496	     39.14206908	     -4.15867920	      0.68315798	     17.74892383	      1.26535393	     -7.55356268	    -18.36244364	      5.56759348	    -13.74844082	      2.68291505	     -0.59420970	      0.04682570	     17.56018948	     26.13645988	     -7.55356268	    -25.73793197	      1.85217383	     -4.77215531	     -9.92928197	     -9.67623913	      5.93405623	     30.54529779	     90.00000001	      0.00000000	      0.00000000	      3.60232299	    -14.42670797	     -4.66555737	     44.68965216	     90.00000001	      0.00000000	      0.00000000
      1.19000000	     11.39091428	      0.34997560	     -4.22048012	     -0.21213498	      0.98158691	      0.26808291	     10.77628948	     -3.05331592	    -11.73432031	     35.53033494	     -3.60108626	      0.62012133	     17.56887044	      1.82643043	     -7.55184810	    -19.28171202	      5.69579443	    -13.70964334	      2.42521408	     -0.61308769	      0.04232797	     18.31247251	     26.51126380	     -7.55184810	    -25.63154849	      1.83800736	     -4.95721630	    -10.26033458	     -9.35853157	      5.72012078	     30.31561585	     90.00000001	      0.00000000	      0.00000000	      4.19491395	    -14.74017000	     -4.78261491	     45.51295874	     90.00000001	      0.00000000	      0.00000000
      1.20000000	     11.42459766	      0.32992050	     -4.10485408	     -0.19853385	      0.97944029	      0.26847513	     11.19442563	     -2.75482875	    -11.95854610	     31.58487928	     -3.23843122	      0.55126014	     17.19424783	      2.65426316	     -7.54969243	    -20.34306590	      5.68320209	    -13.80489086	      2.22751864	     -0.57259430	      0.03887753	     18.99207252	     26.93377541	     -7.54969243	    -25.68367613	      1.91234223	     -5.11950821	    -10.58777989	     -9.03851269	      5.40610512	     30.18461497	     90.00000001	      0.00000000	      0.00000000	      4.81960315	    -15.02985507	     -4.86544597	     46.33575754	     90.00000001	      0.00000000	      0.00000000
      1.21000000	     11.40279762	      0.46623600	     -4.03611569	     -0.18496495	      0.97688553	      0.26888408	     11.59217650	     -2.66849187	    -12.13222881	     27.53968345	     -2.79003486	      0.48065815	     16.83355995	      3.82208613	     -7.54789488	    -21.29681750	      5.85638919	    -13.84368450	      2.10473373	     -0.57619332	      0.03673453	     19.78630302	     27.30541885	     -7.54789488	    -25.66346246	      1.80248086	     -5.31275889	    -10.84284224	     -8.70049356	      5.15552644	     29.97044310	     90.00000001	      0.00000000	      0.00000000	      5.41631569	    -15.33089830	     -4.95784495	     47.12551616	     90.00000001	      0.00000000	      0.00000000
      1.22000000	     11.40642081	      0.58502601	     -3.97221704	     -0.17132965	      0.97409942	      0.26937823	     11.81583139	     -2.55841285	    -12.37891184	     23.31552628	     -2.35325444	      0.40693270	     16.27704850	      5.26656517	     -7.54602373	    -22.25009877	      5.99610928	    -13.88467202	      2.06941249	     -0.57338144	      0.03611806	     20.53642905	     27.70362564	     -7.54602373	    -25.67694458	      1.70270039	     -5.47890477	    -11.09747875	     -8.36695903	      4.86230170	     29.82371909	     90.00000001	      0.00000000	      0.00000000	      6.00518201	    -15.62112126	     -5.02312240	     47.90973303	     90.00000001	      0.00000000	      0.00000000
      1.23000000	     11.42333220	      0.76686877	     -3.90046263	     -0.15757852	      0.97108828	      0.26987251	     11.90352009	     -2.52220469	    -12.57470637	     19.02598180	     -1.91273410	      0.33206603	     15.63262842	      6.83903913	     -7.54407720	    -23.21413219	      6.18918308	    -13.96479827	      2.05609208	     -0.56007218	      0.03588558	     21.29893281	     28.05304802	     -7.54407720	    -25.68512435	      1.53639043	     -5.70679623	    -11.31624844	     -8.02995295	      4.55961029	     29.68067689	     90.00000001	      0.00000000	      0.00000000	      6.56252966	    -15.90662268	     -5.08172760	     48.63649763	     90.00000001	      0.00000000	      0.00000000
      1.24000000	     11.41830876	      1.05074869	     -3.84345290	     -0.14384243	      0.96783410	      0.27036324	     11.94415823	     -2.63434794	    -12.64404117	     14.80447052	     -1.38182723	      0.25838675	     14.92273090	      8.55464428	     -7.54243772	    -24.10638969	      6.51198554	    -13.96559517	      2.12179664	     -0.62285810	      0.03703234	     22.05056398	     28.33293354	     -7.54243772	    -25.66741078	      1.25248201	     -5.96245956	    -11.48332524	     -7.68520018	      4.29699757	     29.50330077	     90.00000001	      0.00000000	      0.00000000	      7.11196865	    -16.19717851	     -5.14966826	     49.32847118	     90.00000001	      0.00000000	      0.00000000
      1.25000000	     11.37358979	      1.38243963	     -3.77158358	     -0.12996930	      0.96433139	      0.27080522	     11.98082924	     -2.82639787	    -12.65414337	     10.77558062	     -0.84255202	      0.18806936	     14.05334050	     10.23772700	     -7.54087567	    -24.93576654	      6.87529501	    -13.93573407	      2.24712268	     -0.70085562	      0.03921969	     22.75529952	     28.57910093	     -7.54087567	    -25.59362906	      0.93400690	     -6.24078490	    -11.66071429	     -7.35747667	      4.02482091	     29.38333833	     90.00000001	      0.00000000	      0.00000000	      7.61797374	    -16.46426874	     -5.19203130	     49.98142171	     90.00000001	      0.00000000	      0.00000000
      1.26000000	     11.32282011	      1.71792737	     -3.68533792	     -0.11598135	      0.96072555	      0.27128823	     11.95218375	     -3.02974595	    -12.34331711	      6.96676600	     -0.30682652	      0.12159300	     12.90018824	     11.32494268	     -7.53772433	    -25.73760142	      7.21664908	    -13.95532897	      2.43772118	     -0.77506023	      0.04254626	     23.49625228	     28.92308680	     -7.53772433	    -25.50707196	      0.61295542	     -6.52587832	    -11.82455306	     -7.02154363	      3.66055498	     29.33784990	     90.00000001	      0.00000000	      0.00000000	      8.11190239	    -16.71491551	     -5.19838587	     50.55011615	     90.00000001	      0.00000000	      0.00000000
      1.27000000	     11.00149386	      2.35163428	     -3.67909069	     -0.10201651	      0.95658232	      0.27123831	     12.64105706	     -3.75952472	    -12.52642186	      4.37364090	      0.35784144	      0.07633443	     12.30860867	     12.91113118	     -7.53721179	    -26.19985168	      8.02125205	    -13.84496771	      2.62267573	     -1.09698287	      0.04577433	     24.13516803	     28.97048206	     -7.53721179	    -25.10047227	      0.03338163	     -6.85944712	    -11.99667283	     -6.82028323	      3.61547984	     29.25985935	     90.00000001	      0.00000000	      0.00000000	      8.54487258	    -16.88047877	     -5.24331527	     51.03020128	     90.00000001	      0.00000000	      0.00000000
      1.28000000	     10.89324776	      2.78854220	     -3.60563887	     -0.08803184	      0.95285375	      0.27161932	     13.07093299	     -4.19739534	    -12.73860145	      2.20782460	      0.80886190	      0.03853381	     11.79050161	     14.54807236	     -7.53684489	    -26.89675359	      8.47107727	    -13.54680445	      2.92631203	     -1.21396072	      0.05107378	     24.57710918	     29.07375126	     -7.53684489	    -24.98695677	     -0.38542344	     -7.11188984	    -12.08957199	     -6.55830682	      3.53235447	     29.22271532	     90.00000001	      0.00000000	      0.00000000	      9.01164996	    -17.02278784	     -5.30557278	     51.55568587	     90.00000001	      0.00000000	      0.00000000
      1.29000000	     10.82406686	      3.08380861	     -3.36593516	     -0.07359020	      0.94929795	      0.27213035	     13.95038035	     -4.55998941	    -14.97086908	      1.66336929	      1.00035973	      0.02903127	     12.24112945	     18.86648867	     -7.53459321	    -27.53856827	      8.62086835	    -13.76449629	      3.51132581	     -1.30714063	      0.06128420	     25.16485063	     29.38189302	     -7.53459321	    -24.86411732	     -0.62539608	     -7.53762516	    -12.13106989	     -6.19586125	      3.00062905	     29.09310080	     90.00000001	      0.00000000	      0.00000000	      9.33141365	    -17.23263087	     -5.34439261	     51.98115049	     90.00000001	      0.00000000	      0.00000000
      1.30000000	     10.62791633	      3.38109675	     -3.19857581	     -0.05913064	      0.94577199	      0.27243284	     14.83315467	     -4.93538747	    -15.97781407	      1.36889707	      1.29620188	      0.02389176	     12.42738484	     21.02579062	     -7.53283159	    -28.04101302	      8.83619076	    -13.93223197	      4.06836554	     -1.46530639	      0.07100637	     25.59247688	     29.75305496	     -7.53283159	    -24.62475061	     -0.84407803	     -7.85262795	    -12.18796105	     -6.02758851	      2.97832825	     29.04718865	     90.00000001	      0.00000000	      0.00000000	      9.60178299	    -17.29981690	     -5.41175457	     52.31590170	     90.00000001	      0.00000000	      0.00000000
